# xmcd
#
# Track frame offsets:
#	150
#	27177
#	39550
#	56146
#	71859
#	87120
#	101990
#	115068
#	129693
#	157115
#	180599
#	206474
#	234036
#	250067
#	266381
#	281989
#	298158
#
# Disc length: 4150 seconds
#
# Revision: 0
# Processed by: cddbd v1.5.2PL0 Copyright (c) Steve Scherf et al.
# Submitted via: EasyCDDAExtractor 11.9.9.666
#
DISCID=fc103411
DTITLE=Various Artist - Dance Charts In The Mix Vol 1
DYEAR=2009
DGENRE=Dance
TTITLE0=TV ROCK feat. RUDY - In The Air (Axwell Remix)
TTITLE1=ATB presents FLANDERS - Behind (ATB vs Callea Re-Edit)
TTITLE2=SPENCER and HILL - Young Love (Radio Mix)
TTITLE3=R.I.O. - After The Love (Chris Ortega and Steve Forest Radio Edit)
TTITLE4=SHAGGY feat. GARY NESTA PINE - Fly High (Radio Edit)
TTITLE5=4 STRINGS - Take Me Away (Dave Darell Radio Edit)
TTITLE6=CHRIS DEKAY - Give It To Me (Original Radio)
TTITLE7=D.O.N.S. feat. JOCELYN BROWN - Somebody Else's Guy (Club)
TTITLE8=OUT OF OFFICE feat. THE ORIGINAL - I Luv U Baby (Dabruck and Klein Remix
TTITLE8=Edit)
TTITLE9=STEVE ANGELLO and LAIDBACK LUKE feat. ROBIN S. - Show Me Love (Radio Mix
TTITLE9=)
TTITLE10=AXWELL, INGROSSO, ANGELLO and LAIDBACK LUKE - Leave The World Behind (R
TTITLE10=adio Edit)
TTITLE11=WOLFGANG GARTNER - Wolfgang's 5th Symphony (Radio Mix)
TTITLE12=MEPHISTO - The Beat Of The Bee (Original Radio Edit)
TTITLE13=BEN BAILEY vs FRANK DREBIN - Keep On
TTITLE14=MARK'OH - United (Short Mix)
TTITLE15=DJ SAMMY - Feel The Love (Radio Edit)
TTITLE16=MIAMI - Sunshine Fiesta (Radio Mix)
EXTD=
EXTT0=
EXTT1=
EXTT2=
EXTT3=
EXTT4=
EXTT5=
EXTT6=
EXTT7=
EXTT8=
EXTT9=
EXTT10=
EXTT11=
EXTT12=
EXTT13=
EXTT14=
EXTT15=
EXTT16=
PLAYORDER=
